<svg height="512" viewBox="0 0 512 512" width="512" xmlns="http://www.w3.org/2000/svg"><g id="flat"><g fill="#428dc5"><path d="m128 87.62v56.38a8 8 0 0 1 -16 0v-56.38a11.993 11.993 0 0 0 -9.09-11.65l-28.14-7.04-52.71-13.17a8 8 0 1 1 3.88-15.52l52.71 13.17 28.14 7.04a27.956 27.956 0 0 1 21.21 27.17z"/><path d="m488 456h-336a40.045 40.045 0 0 1 -40-40v-48a8 8 0 0 1 16 0v48a24.027 24.027 0 0 0 24 24h336a8 8 0 0 1 0 16z"/><path d="m474 136h-370a8 8 0 0 0 -8 8v206.783a22.011 22.011 0 0 0 21.967 22 22.181 22.181 0 0 0 4.52-.468l175.155-36.49 180.845-37.676a22.091 22.091 0 0 0 17.513-21.533v-118.616a22.025 22.025 0 0 0 -22-22zm6 140.616a5.957 5.957 0 0 1 -1.079 3.384h-30.921v-32h32zm-223.377 51.415c-.206-.015-.413-.031-.623-.031v-32h32v25.5zm-48.623-48.031v-32h32v32zm32 16v32h-32v-32zm-80-48h32v32h-32zm-16 32h-32v-32h32zm192-48h-32v-32h32zm16-32h32v32h-32zm-64 32h-32v-32h32zm-48 0h-32v-32h32zm16 16h32v32h-32zm48 0h32v32h-32zm48 0h32v32h-32zm48 0h32v32h-32zm0-16v-32h32v32zm0-48v-32h32v32zm-16 0h-32v-32h32zm-48 0h-32v-32h32zm-48 0h-32v-32h32zm-48 0h-32v-32h32zm-48 0h-32v-32h32zm0 16v32h-32v-32zm-48 32h-32v-32h32zm-32 64h32v32h-32zm48 0h32v32h-32zm19.974 48-19.974 4.161v-4.161zm124.026-48h32v15.5l-32 6.666zm48 0h32v5.5l-32 6.666zm48 0h10.374l-10.374 2.161zm48-64v-32h32v32zm32-74v26h-32v-32h26a6.006 6.006 0 0 1 6 6zm-336-6v32h-32v-32zm-24.776 204.656a6 6 0 0 1 -7.224-5.873v-6.783h32v7.5z"/></g><circle cx="240" cy="448" fill="#c7463b" r="40"/><circle cx="240" cy="448" fill="#d9d9d9" r="16"/><circle cx="416" cy="448" fill="#c7463b" r="40"/><circle cx="416" cy="448" fill="#d9d9d9" r="16"/><path d="m78.65 53.41-3.88 15.52-52.71-13.17a8 8 0 1 1 3.88-15.52z" fill="#c7463b"/></g></svg>